# xmcd
#
# Track frame offsets:
#	150
#	25932
#	47795
#	71265
#	91124
#	123279
#	143955
#	163205
#	191093
#	213350
#
# Disc length: 3123 seconds
#
# Revision: 15
# Processed by: cddbd v1.5.2PL0 Copyright (c) Steve Scherf et al.
# Submitted via: Jack! The Knife 20 Magnifico
#
DISCID=8a0c310a
DTITLE=Voivod - Negatron
DYEAR=1995
DGENRE=Metal
TTITLE0=Insect
TTITLE1=Project X
TTITLE2=Nanoman
TTITLE3=Reality?
TTITLE4=Negatron
TTITLE5=Planet Hell
TTITLE6=Meteor
TTITLE7=Cosmic Conspiracy
TTITLE8=Bio-TV
TTITLE9=D.N.A. (Don't No Anything)
EXTD=Daryn Barry, Alfio Annibalini and Voivod
EXTT0=D'Amour, Langevin, Forrest
EXTT1=D'Amour, Langevin, Forrest
EXTT2=D'Amour, Langevin, Forrest
EXTT3=D'Amour, Langevin, Forrest
EXTT4=D'Amour, Langevin, Forrest
EXTT5=D'Amour, Langevin, Forrest
EXTT6=D'Amour, Langevin, Forrest
EXTT7=D'Amour, Langevin, Forrest
EXTT8=D'Amour, Langevin, Forrest
EXTT9=D'Amour, Langevin, Forrest
PLAYORDER=
